<svg version="1.2" xmlns="http://www.w3.org/2000/svg" viewBox="0 0 417 561" width="417" height="561">
	<title>Designer</title>
	<style>
		.s0 { fill: #ffffff } 
	</style>
	<path id="Layer 2" class="s0" d="m63.6 560c0 0-92.8-345.7-47.4-552.3 8-47.2 309.7 180.9 399.3 216.1 0 0-139.5 110.5-161.3 161.7-24.4-100-193.2-315.1-193.2-315.1 0 0-23.1 308.4 71.9 418.5 0 0-65.4 64.5-69.3 71.1z"/>
	<path id="Layer 4" fill-rule="evenodd" class="s0" d="m535 228c0 0 327.5-211.8 387-230 0 0 58.6 162.2-36 556 0 0-34.3-58.6-60-71.3 0 0 82.3-173.3 57.8-411.4 0 0-160 212-182.2 303.9 0 0-122.6-131.8-166.6-147.2z"/>
	<path id="ears" fill-rule="evenodd" class="s0" d="m63.6 560c0 0-92.8-345.7-47.4-552.3 8-47.2 309.7 180.9 399.3 216.1 0 0-139.5 110.5-161.3 161.7-24.4-100-193.2-315.1-193.2-315.1 0 0-23.1 308.4 71.9 418.5 0 0-65.4 64.5-69.3 71.1zm471.4-332c0 0 327.5-211.8 387-230 0 0 58.6 162.2-36 556 0 0-34.3-58.6-60-71.3 0 0 82.3-173.3 57.8-411.4 0 0-160 212-182.2 303.9 0 0-122.6-131.8-166.6-147.2z"/>
</svg>